<svg width="894" height="933" viewBox="0 0 894 933" fill="none" xmlns="http://www.w3.org/2000/svg">
<g filter="url(#filter0_iiii_638_1476)">
<path d="M632.45 157.524C664.726 196.475 604.994 278.552 625.411 327.667C652.124 391.928 747.644 393.411 760.289 465.054C773.124 537.769 734.188 622.383 688.956 687.673C640.034 758.287 573.575 821.177 500.024 840.727C427.337 860.047 356.081 832.936 299.829 791.1C249.986 754.029 238.816 679.523 206.667 622.546C175.586 567.464 113.798 531.715 113.987 461.744C114.177 391.652 158.383 319.765 207.629 267.722C251.185 221.692 311 216.032 365.553 195.89C407.237 180.499 447.24 169.722 489.496 163.647C538.468 156.608 601.659 120.368 632.45 157.524Z" fill="#484C9A"/>
</g>
<defs>
<filter id="filter0_iiii_638_1476" x="-0.000244141" y="0" width="893.36" height="948.078" filterUnits="userSpaceOnUse" color-interpolation-filters="sRGB">
<feFlood flood-opacity="0" result="BackgroundImageFix"/>
<feBlend mode="normal" in="SourceGraphic" in2="BackgroundImageFix" result="shape"/>
<feColorMatrix in="SourceAlpha" type="matrix" values="0 0 0 0 0 0 0 0 0 0 0 0 0 0 0 0 0 0 127 0" result="hardAlpha"/>
<feOffset dy="16"/>
<feGaussianBlur stdDeviation="16"/>
<feComposite in2="hardAlpha" operator="arithmetic" k2="-1" k3="1"/>
<feColorMatrix type="matrix" values="0 0 0 0 0 0 0 0 0 0 0 0 0 0 0 0 0 0 0.16 0"/>
<feBlend mode="normal" in2="shape" result="effect1_innerShadow_638_1476"/>
<feColorMatrix in="SourceAlpha" type="matrix" values="0 0 0 0 0 0 0 0 0 0 0 0 0 0 0 0 0 0 127 0" result="hardAlpha"/>
<feOffset dy="8"/>
<feGaussianBlur stdDeviation="8"/>
<feComposite in2="hardAlpha" operator="arithmetic" k2="-1" k3="1"/>
<feColorMatrix type="matrix" values="0 0 0 0 0 0 0 0 0 0 0 0 0 0 0 0 0 0 0.12 0"/>
<feBlend mode="normal" in2="effect1_innerShadow_638_1476" result="effect2_innerShadow_638_1476"/>
<feColorMatrix in="SourceAlpha" type="matrix" values="0 0 0 0 0 0 0 0 0 0 0 0 0 0 0 0 0 0 127 0" result="hardAlpha"/>
<feOffset dy="4"/>
<feGaussianBlur stdDeviation="4"/>
<feComposite in2="hardAlpha" operator="arithmetic" k2="-1" k3="1"/>
<feColorMatrix type="matrix" values="0 0 0 0 0 0 0 0 0 0 0 0 0 0 0 0 0 0 0.12 0"/>
<feBlend mode="normal" in2="effect2_innerShadow_638_1476" result="effect3_innerShadow_638_1476"/>
<feColorMatrix in="SourceAlpha" type="matrix" values="0 0 0 0 0 0 0 0 0 0 0 0 0 0 0 0 0 0 127 0" result="hardAlpha"/>
<feOffset dy="2"/>
<feGaussianBlur stdDeviation="2"/>
<feComposite in2="hardAlpha" operator="arithmetic" k2="-1" k3="1"/>
<feColorMatrix type="matrix" values="0 0 0 0 0 0 0 0 0 0 0 0 0 0 0 0 0 0 0.12 0"/>
<feBlend mode="normal" in2="effect3_innerShadow_638_1476" result="effect4_innerShadow_638_1476"/>
</filter>
</defs>
</svg>
