<svg width="201" height="69" viewBox="0 0 201 69" fill="none" xmlns="http://www.w3.org/2000/svg">
<g clip-path="url(#clip0_513_2490)">
<g clip-path="url(#clip1_513_2490)">
<path fill-rule="evenodd" clip-rule="evenodd" d="M50 48.9198C50 43.5161 54.477 39.1358 60 39.1358C65.523 39.1358 70 43.5161 70 48.9198C70 54.3234 65.523 58.7037 60 58.7037C60 64.1074 55.523 68.4877 50 68.4877C44.477 68.4877 40 64.1074 40 58.7037C40 53.3 44.477 48.9198 50 48.9198ZM10 9.78395C10 4.38028 14.477 0 20 0C25.523 0 30 4.38028 30 9.78395C30 15.1876 25.523 19.5679 20 19.5679C20 24.9716 15.523 29.3519 10 29.3519C4.477 29.3519 0 24.9716 0 19.5679C0 14.1642 4.477 9.78395 10 9.78395ZM20 17.6111C24.418 17.6111 28 14.1065 28 9.78395C28 5.4614 24.418 1.95679 20 1.95679C15.582 1.95679 12 5.4614 12 9.78395C12 14.1065 15.582 17.6111 20 17.6111ZM60 56.7469C64.418 56.7469 68 53.2423 68 48.9198C68 44.5972 64.418 41.0926 60 41.0926C55.582 41.0926 52 44.5972 52 48.9198C52 53.2423 55.582 56.7469 60 56.7469Z" fill="black"/>
<path fill-rule="evenodd" clip-rule="evenodd" d="M132 48.9198C132 43.5161 136.477 39.1358 142 39.1358C147.523 39.1358 152 43.5161 152 48.9198C152 54.3234 147.523 58.7037 142 58.7037C142 64.1074 137.523 68.4877 132 68.4877C126.477 68.4877 122 64.1074 122 58.7037C122 53.3 126.477 48.9198 132 48.9198ZM92 9.78395C92 4.38028 96.477 0 102 0C107.523 0 112 4.38028 112 9.78395C112 15.1876 107.523 19.5679 102 19.5679C102 24.9716 97.523 29.3519 92 29.3519C86.477 29.3519 82 24.9716 82 19.5679C82 14.1642 86.477 9.78395 92 9.78395ZM102 17.6111C106.418 17.6111 110 14.1065 110 9.78395C110 5.4614 106.418 1.95679 102 1.95679C97.582 1.95679 94 5.4614 94 9.78395C94 14.1065 97.582 17.6111 102 17.6111ZM142 56.7469C146.418 56.7469 150 53.2423 150 48.9198C150 44.5972 146.418 41.0926 142 41.0926C137.582 41.0926 134 44.5972 134 48.9198C134 53.2423 137.582 56.7469 142 56.7469Z" fill="black"/>
<path fill-rule="evenodd" clip-rule="evenodd" d="M214 48.9198C214 43.5161 218.477 39.1358 224 39.1358C229.523 39.1358 234 43.5161 234 48.9198C234 54.3234 229.523 58.7037 224 58.7037C224 64.1074 219.523 68.4877 214 68.4877C208.477 68.4877 204 64.1074 204 58.7037C204 53.3 208.477 48.9198 214 48.9198ZM174 9.78395C174 4.38028 178.477 0 184 0C189.523 0 194 4.38028 194 9.78395C194 15.1876 189.523 19.5679 184 19.5679C184 24.9716 179.523 29.3519 174 29.3519C168.477 29.3519 164 24.9716 164 19.5679C164 14.1642 168.477 9.78395 174 9.78395ZM184 17.6111C188.418 17.6111 192 14.1065 192 9.78395C192 5.4614 188.418 1.95679 184 1.95679C179.582 1.95679 176 5.4614 176 9.78395C176 14.1065 179.582 17.6111 184 17.6111ZM224 56.7469C228.418 56.7469 232 53.2423 232 48.9198C232 44.5972 228.418 41.0926 224 41.0926C219.582 41.0926 216 44.5972 216 48.9198C216 53.2423 219.582 56.7469 224 56.7469Z" fill="black"/>
</g>
</g>
<defs>
<clipPath id="clip0_513_2490">
<rect width="201" height="69" fill="white"/>
</clipPath>
<clipPath id="clip1_513_2490">
<rect width="201" height="317" fill="white"/>
</clipPath>
</defs>
</svg>
