<svg width="194" height="69" viewBox="0 0 194 69" fill="none" xmlns="http://www.w3.org/2000/svg">
<g clip-path="url(#clip0_619_1667)">
<g clip-path="url(#clip1_619_1667)">
<path fill-rule="evenodd" clip-rule="evenodd" d="M10 48.9198C10 43.5161 14.477 39.1358 20 39.1358C25.523 39.1358 30 43.5161 30 48.9198C30 54.3234 25.523 58.7037 20 58.7037C20 64.1074 15.523 68.4877 10 68.4877C4.477 68.4877 0 64.1074 0 58.7037C0 53.3 4.477 48.9198 10 48.9198ZM-30 9.78395C-30 4.38028 -25.523 0 -20 0C-14.477 0 -10 4.38028 -10 9.78395C-10 15.1876 -14.477 19.5679 -20 19.5679C-20 24.9716 -24.477 29.3519 -30 29.3519C-35.523 29.3519 -40 24.9716 -40 19.5679C-40 14.1642 -35.523 9.78395 -30 9.78395ZM-20 17.6111C-15.582 17.6111 -12 14.1065 -12 9.78395C-12 5.4614 -15.582 1.95679 -20 1.95679C-24.418 1.95679 -28 5.4614 -28 9.78395C-28 14.1065 -24.418 17.6111 -20 17.6111ZM20 56.7469C24.418 56.7469 28 53.2423 28 48.9198C28 44.5972 24.418 41.0926 20 41.0926C15.582 41.0926 12 44.5972 12 48.9198C12 53.2423 15.582 56.7469 20 56.7469Z" fill="black"/>
<path fill-rule="evenodd" clip-rule="evenodd" d="M92 48.9198C92 43.5161 96.477 39.1358 102 39.1358C107.523 39.1358 112 43.5161 112 48.9198C112 54.3234 107.523 58.7037 102 58.7037C102 64.1074 97.523 68.4877 92 68.4877C86.477 68.4877 82 64.1074 82 58.7037C82 53.3 86.477 48.9198 92 48.9198ZM52 9.78395C52 4.38028 56.477 0 62 0C67.523 0 72 4.38028 72 9.78395C72 15.1876 67.523 19.5679 62 19.5679C62 24.9716 57.523 29.3519 52 29.3519C46.477 29.3519 42 24.9716 42 19.5679C42 14.1642 46.477 9.78395 52 9.78395ZM62 17.6111C66.418 17.6111 70 14.1065 70 9.78395C70 5.4614 66.418 1.95679 62 1.95679C57.582 1.95679 54 5.4614 54 9.78395C54 14.1065 57.582 17.6111 62 17.6111ZM102 56.7469C106.418 56.7469 110 53.2423 110 48.9198C110 44.5972 106.418 41.0926 102 41.0926C97.582 41.0926 94 44.5972 94 48.9198C94 53.2423 97.582 56.7469 102 56.7469Z" fill="black"/>
<path fill-rule="evenodd" clip-rule="evenodd" d="M174 48.9198C174 43.5161 178.477 39.1358 184 39.1358C189.523 39.1358 194 43.5161 194 48.9198C194 54.3234 189.523 58.7037 184 58.7037C184 64.1074 179.523 68.4877 174 68.4877C168.477 68.4877 164 64.1074 164 58.7037C164 53.3 168.477 48.9198 174 48.9198ZM134 9.78395C134 4.38028 138.477 0 144 0C149.523 0 154 4.38028 154 9.78395C154 15.1876 149.523 19.5679 144 19.5679C144 24.9716 139.523 29.3519 134 29.3519C128.477 29.3519 124 24.9716 124 19.5679C124 14.1642 128.477 9.78395 134 9.78395ZM144 17.6111C148.418 17.6111 152 14.1065 152 9.78395C152 5.4614 148.418 1.95679 144 1.95679C139.582 1.95679 136 5.4614 136 9.78395C136 14.1065 139.582 17.6111 144 17.6111ZM184 56.7469C188.418 56.7469 192 53.2423 192 48.9198C192 44.5972 188.418 41.0926 184 41.0926C179.582 41.0926 176 44.5972 176 48.9198C176 53.2423 179.582 56.7469 184 56.7469Z" fill="black"/>
</g>
</g>
<defs>
<clipPath id="clip0_619_1667">
<rect width="194" height="69" fill="white"/>
</clipPath>
<clipPath id="clip1_619_1667">
<rect width="236" height="317" fill="white" transform="translate(-40)"/>
</clipPath>
</defs>
</svg>
